<!-- 
<?xml version="1.0" encoding="UTF-8" standalone="no"?>
Created with Inkscape (http://www.inkscape.org/) -->

<svg
   xmlns:dc="http://purl.org/dc/elements/1.1/"
   xmlns:cc="http://creativecommons.org/ns#"
   xmlns:rdf="http://www.w3.org/1999/02/22-rdf-syntax-ns#"
   xmlns:svg="http://www.w3.org/2000/svg"
   xmlns="http://www.w3.org/2000/svg"
   xmlns:sodipodi="http://sodipodi.sourceforge.net/DTD/sodipodi-0.dtd"
   xmlns:inkscape="http://www.inkscape.org/namespaces/inkscape"
   version="1.1"
   id="svg815"
   width="701.44"
   height="498.23999"
   viewBox="0 0 701.44 498.23999"
   sodipodi:docname="serene8.svg"
   inkscape:version="0.92.4 (5da689c313, 2019-01-14)">
  <metadata
     id="metadata821">
    <rdf:RDF>
      <cc:Work
         rdf:about="">
        <dc:format>image/svg+xml</dc:format>
        <dc:type
           rdf:resource="http://purl.org/dc/dcmitype/StillImage" />
        <dc:title></dc:title>
      </cc:Work>
    </rdf:RDF>
  </metadata>
  <defs
     id="defs819" />
  <sodipodi:namedview
     pagecolor="#e2b007"
     bordercolor="#666666"
     borderopacity="1"
     objecttolerance="10"
     gridtolerance="10"
     guidetolerance="10"
     inkscape:pageopacity="0"
     inkscape:pageshadow="2"
     inkscape:window-width="1920"
     inkscape:window-height="1017"
     id="namedview817"
     showgrid="false"
     inkscape:zoom="1.701991"
     inkscape:cx="304.35172"
     inkscape:cy="242.12613"
     inkscape:window-x="-8"
     inkscape:window-y="-8"
     inkscape:window-maximized="1"
     inkscape:current-layer="svg815" />
  <g
     inkscape:groupmode="layer"
     id="layer3"
     inkscape:label="Background">
    <rect
       style="opacity:0;fill:#a0892c;fill-opacity:1;stroke:none;stroke-width:0.37795275;stroke-linejoin:round;stroke-miterlimit:4;stroke-dasharray:none;stroke-dashoffset:0;stroke-opacity:1"
       id="rect5057"
       width="705.05658"
       height="498.23999"
       x="-1.1750944"
       y="-2.2168933e-12" />
    <path
       style="opacity:0;fill:#a0892c;fill-opacity:1;stroke:none;stroke-width:0.37795275;stroke-linejoin:round;stroke-miterlimit:4;stroke-dasharray:none;stroke-dashoffset:0;stroke-opacity:1"
       d="M -1.1750944,0 H 703.88149 V 498.23999 H -1.1750944 Z"
       id="rect5064"
       inkscape:connector-curvature="0" />
  </g>
  <g
     inkscape:groupmode="layer"
     id="layer1"
     inkscape:label="Layer 1"
     style="display:inline">
    <g
       id="g5054">
      <path
         id="path4649"
         d="m 282.5888,294.64719 c 2.02334,-47.29803 -18.43585,-35.5571 -6.41181,-51.90932 13.98303,-33.8494 3.31174,34.54895 11.25899,-1.20946 7.95352,2.87894 -0.79175,19.72494 0.23437,20.8638 2.00157,2.2215 0.46006,-5.74607 5.23121,-4.01971 -0.50906,5.38967 -5.04661,41.6414 -10.31276,36.27469 z"
         style="fill:#000000;fill-opacity:1;stroke-width:0.31999999"
         inkscape:connector-curvature="0" />
      <path
         id="path4647"
         d="m 263.41836,307.03999 c -23.04026,-14.22479 -22.32812,-38.07415 -22.32427,-58.77774 17.67906,-10.31788 4.84675,32.14148 21.38587,49.08521 1.81212,1.92894 7.77363,12.02262 0.9384,9.69253 z"
         style="fill:#000000;fill-opacity:1;stroke-width:0.31999999"
         inkscape:connector-curvature="0" />
      <path
         id="path4645"
         d="m 488.64,333.74796 c -29.5335,-2.22154 -66.4698,-6.71218 -81.6,-36.01757 -4.86693,-15.37859 -17.50337,19.62175 -23.83501,18.93832 -5.36403,-0.57899 -0.64232,-4.06889 1.09474,-9.22174 10.80564,-21.56098 30.04645,-45.78532 25.00864,-71.49052 -0.96009,-9.8253 -37.5544,-7.00724 -21.48671,-16.45479 22.22083,-3.59532 33.39394,18.35123 28.12893,38.41985 -3.16849,10.85192 -6.95596,21.19513 -8.41602,24.90803 -0.95757,2.43509 12.19862,21.40709 27.87101,32.14089 25.64776,13.43582 55.45973,11.67994 83.33096,8.76524 20.12287,15.18987 -26.16494,8.97316 -30.09654,10.01229 z"
         style="fill:#000000;fill-opacity:1;stroke-width:0.31999999"
         inkscape:connector-curvature="0" />
      <path
         id="path827"
         d="M 168.32,482.55487 C 131.92653,476.17933 97.647682,455.18031 77.80268,423.46062 59.477982,399.67225 58.755219,367.61477 61.756266,338.87999 c 1.64069,-26.86493 8.007728,-53.88967 21.908604,-77.18694 14.495047,-21.58619 35.75238,-41.43405 62.00041,-46.17073 27.74263,-0.26424 57.49279,-0.87292 80.68775,16.64294 11.74615,13.12679 42.15038,-2.20395 52.71375,-9.91635 11.32717,-8.27006 26.59413,-35.27454 42.20148,-1.86829 15.5471,-0.46545 8.15993,-23.93306 34.95766,-8.01555 23.62564,-20.7801 33.61535,19.64974 11.46548,28.89306 6.28748,-8.14026 6.05703,-41.2585 -9.38964,-22.37815 1.04839,6.98083 -3.52136,51.46575 -7.49524,36.98385 0.92127,-12.3544 7.52062,-37.13098 -7.45103,-42.42493 -11.97093,0.22207 -2.13378,13.17878 0.66369,21.49818 2.06134,6.13023 -0.54669,4.9447 -8.3748,-5.65395 -4.76593,-10.80103 -7.20151,-3.46958 -10.82174,-3.62602 -4.48968,-0.19401 0.37359,14.10731 -5.24029,12.93132 -3.3002,-0.69132 -4.43889,-42.61768 -24.49463,-22.90917 -21.27685,20.90848 -38.88422,25.69909 -62.9277,27.84224 -23.80991,3.88586 -33.64392,28.92591 -31.44896,50.58073 5.59862,25.03582 36.15053,28.7884 56.26424,37.46033 25.8577,9.53658 55.10564,0.43396 80.25075,13.44526 21.68838,12.6793 27.01923,38.83608 23.72215,62.22445 1.13751,12.76085 -21.37816,31.29469 2.25182,18.50036 32.20157,-13.01723 65.49742,-23.4769 100.16,-27.17235 25.52048,-1.17815 53.94085,-0.24077 79.74493,5.56323 32.01292,7.80462 64.45273,16.79462 93.47894,32.67677 5.2669,14.81272 -29.78489,-7.08795 -38.76013,-7.04013 -23.52222,-6.75617 -47.01619,-13.22294 -71.46467,-15.79844 -37.88549,-7.09895 -77.11961,-3.35804 -113.54112,8.92887 -26.21213,5.28777 -49.26076,19.34277 -74.72281,27.00508 -41.17215,14.4167 -83.25121,26.70424 -126.70971,30.97467 -14.39244,0.16876 -28.63175,2.75 -43.06545,1.68454 z"
         style="fill:#000000;fill-opacity:1;stroke-width:0.31999999"
         inkscape:connector-curvature="0"
         sodipodi:nodetypes="ccccccsccccccscsssccccccccccccccc" />
    </g>
  </g>
  <g
     id="g5048">
    <path
       id="path4685"
       d="m 112.8,114.59128 c -19.72427,-1.96872 8.14596,-22.078551 6.38746,-9.32806 2.42273,10.14175 34.54927,0.57732 43.82598,-6.968624 6.39678,-11.199545 -3.3,-18.726971 -14.17425,-20.967458 -10.87138,-3.551617 -22.35895,0.128444 -33.90505,-0.667262 -3.68225,-2.168388 -6.17042,-4.280372 -4.95914,-6.335152 2.70378,-4.586607 25.44364,-15.717333 32.31901,-21.406106 19.54587,-15.637255 35.31357,-23.640806 31.92171,3.460891 -12.06807,13.370491 -19.39161,4.927522 -15.71689,0.86081 5.32785,-5.896185 -4.265,-5.184121 -10.44152,-0.760495 -10.23365,4.465494 -40.32067,20.280012 -11.89728,17.803923 16.79298,-0.07528 28.28284,1.31143 38.86696,11.399902 9.90504,12.705962 -12.79626,27.112241 -26.06556,28.536701 -11.56109,3.81948 -23.99403,5.40308 -36.16143,4.37093 z"
       style="display:inline;fill:#000000;fill-opacity:1;stroke-width:0.31999999"
       inkscape:connector-curvature="0"
       sodipodi:nodetypes="cccccsccsccccc" />
    <path
       id="path4683"
       d="m 499.1135,115.47126 c -4.13669,-23.960868 -12.59388,-22.884096 -20.05746,-37.480899 -7.27636,-12.834833 -10.65297,-12.027752 -11.40269,2.203323 -0.29465,5.593169 -3.04609,14.610728 -3.35959,18.485974 0.80003,8.103142 -5.56602,16.584912 -8.57672,16.931022 -6.30877,0.72525 -10.21649,1.41644 -2.56698,-10.34929 5.25252,-14.125532 10.00391,-31.448159 9.14548,-44.639117 1.87756,-19.095668 -25.70303,19.775813 -23.25555,2.578112 1.84101,-10.520702 21.8772,-13.619314 31.84,-18.72646 8.74048,-4.142654 10.11349,-2.830427 10.03674,10.165768 -0.0499,8.445075 5.31286,9.286119 9.31281,18.927639 8.45397,14.673944 9.24953,17.633448 14.58228,-1.539678 2.57381,-9.253746 9.24581,-19.89393 11.77301,-21.956087 4.25682,-8.359414 9.69034,-15.625301 13.66597,-17.806038 2.95464,-1.620699 10.27117,2.472139 12.74016,7.541353 -17.43577,11.23668 -14.03645,1.40909 -17.88877,6.44832 -6.75026,8.830038 -10.21101,20.736008 -15.68993,36.794628 -0.51326,11.462222 10.64589,23.5913 -3.30141,30.47816 l -5.47736,3.66405 -1.52,-1.7204 z"
       style="display:inline;fill:#000000;fill-opacity:1;stroke-width:0.31999999"
       inkscape:connector-curvature="0"
       sodipodi:nodetypes="ccscsccccscscscsccccc" />
    <path
       id="path4679"
       d="m 541.19463,125.26763 c 11.53503,-16.01189 1.13898,-7.86571 -9.73837,-10.27685 -4.55852,-20.960367 23.76118,4.11321 24.51539,-27.149968 1.71218,-11.16805 3.64889,-18.75197 4.64454,-29.05829 5.82744,-22.36715 -36.83,3.017897 -17.52738,-14.791273 4.61138,-6.389226 18.42656,0.237926 25.51576,-5.508006 2.42917,-1.968887 6.68781,0.719654 9.63478,2.161274 1.58112,0.773461 3.1408,1.370562 4.56301,1.059868 26.95757,3.619054 16.39874,-6.656868 26.43532,-2.882863 3.2118,1.207716 -2.793,5.795283 -6.89691,10.255989 -12.02508,9.260622 -31.39983,-10.091541 -30.70696,10.588765 -6.57645,17.060869 36.50811,-4.852855 23.53381,10.62335 -11.01642,10.689712 -28.51147,-9.915087 -31.16016,23.310286 -8.60394,24.301628 35.9262,14.386768 34.79993,3.680016 31.82724,-4.660186 8.51195,15.259642 -13.11209,18.781722 -22.5521,3.67324 -27.426,-5.84114 -34.49123,8.5251 -6.16926,6.22413 -12.34567,2.28957 -10.00944,0.68088 z"
       style="display:inline;fill:#000000;fill-opacity:1;stroke-width:0.31999999"
       inkscape:connector-curvature="0"
       sodipodi:nodetypes="cccccsccscccccscc" />
    <path
       id="path4673"
       d="m 270.01242,133.53897 c -10.27983,-10.62093 7.56169,-10.9719 10.10793,-17.97257 4.41843,-15.50661 7.65504,-32.167492 12.6802,-48.324712 2.69593,-8.955586 -4.31805,-8.833731 -6.82356,-4.897604 -2.41228,3.789659 -9.9516,1.129628 -0.77647,-8.063856 2.66877,-10.087865 11.02669,-18.045237 25.12754,-17.581163 6.75414,6.902395 25.97689,2.578213 32.71638,8.701795 5.24644,7.122431 -8.79734,14.806481 -15.32536,18.088122 -10.92894,5.493988 -18.85344,3.183703 -12.04332,18.633296 13.30303,21.117742 21.54739,15.62399 32.57194,24.018182 1.52541,5.22322 -4.47376,6.24303 -12.81599,2.10881 -10.98366,-5.44324 -30.92766,-13.044298 -32.97763,-22.940376 -1.61088,-7.77642 -8.01317,-3.143393 -4.72144,-12.768233 1.97798,-0.135048 7.45246,-9.134514 11.88613,-7.591513 7.1975,2.504859 22.4162,-11.792758 22.4162,-11.792758 6.02058,-6.029223 -19.98704,-3.002831 -26.35384,-2.440788 -2.84161,7.832042 -9.66152,23.968826 -12.81375,42.54269 -2.30104,13.558448 -6.47756,30.353238 -12.3358,35.714228 -3.54329,2.51159 -4.7104,5.80648 -10.51916,4.56645 z"
       style="display:inline;fill:#000000;fill-opacity:1;stroke-width:0.31999999"
       inkscape:connector-curvature="0"
       sodipodi:nodetypes="cccscccsccsscsscscc" />
    <path
       id="path4669"
       d="m 471.65718,150.34759 c -0.29809,-0.14907 -1.56618,1.68724 -4.0368,5.82852 -1.57072,2.63287 -2.87826,7.34975 -3.33817,10.40528 -0.54274,3.60589 -0.32994,4.52882 0.7992,7.34697 0.5479,1.36749 2.83227,1.43383 2.83227,1.43383 l 0.01,2.85909 c 0.30162,0.14256 -2.97526,0.273 -5.1786,-3.16089 -1.79063,-2.79068 -2.03493,-1.86777 -0.76972,-11.22694 0.80513,-5.95585 3.31732,-10.64055 4.84253,-12.78967 2.26338,-3.18926 4.16461,-5.00514 6.65876,-5.31773 2.73611,-0.34291 4.42217,1.11568 5.4844,5.52328 1.48713,6.1707 3.26667,3.01994 4.22181,5.34579 0.58508,1.42474 -0.17648,5.95901 -0.64876,7.40809 -1.36244,1.88833 -2.13912,0.74717 -3.78004,3.27025 -1.18456,1.82139 -3.16074,4.29012 -5.33982,6.86538 -2.7546,3.25542 -5.49056,4.08244 -5.49056,4.08244 -0.16136,-0.0961 -0.1012,-2.75527 -0.1012,-2.75527 0,0 2.4705,-1.29622 3.36722,-2.66051 0.40708,-0.61934 3.96143,-5.57555 3.96659,-8.87755 0.009,-5.69777 -2.66076,-13.38759 -3.49868,-13.58036 z"
       style="display:inline;fill:#000000;fill-opacity:1;stroke-width:0.31999999"
       inkscape:connector-curvature="0"
       sodipodi:nodetypes="csssccssscsscssccssc" />
    <path
       id="path4667"
       d="m 488.74243,178.04539 c 0.38296,-2.39337 0.72368,-5.44259 1.05011,-8.33301 0.19317,-1.71045 1.17589,-2.98619 1.39972,-4.46782 0.397,-2.62785 1.63034,-4.5438 1.72871,-5.70976 0.11227,-1.33072 0.64819,-1.71107 0.41686,-3.34392 -0.15767,-1.11291 -3.6731,1.67269 -4.94514,-0.2926 -0.43491,-0.67194 7.47015,-5.59366 12.28161,-6.77826 0.88162,-0.30774 2.76076,0.18612 2.33612,1.66881 -0.39339,1.37364 -2.29535,1.91847 -2.99172,3.66489 -4.17845,10.47911 -10.39676,26.04538 4.1411,11.94422 1.78844,-2.56717 5.3441,-3.87244 7.21939,-10.48351 0.52461,-1.84946 1.84855,-1.79277 2.74734,-2.61332 3.33785,-3.04727 6.23485,-3.75478 1.71857,10.16072 -0.27592,2.10754 0.21851,6.51786 0.69131,8.28521 0.41784,1.56191 1.6497,-0.49079 2.94207,1.47631 0.97181,1.47917 -3.39709,4.17135 -4.33253,4.82121 -0.5596,0.38876 -1.14601,0.8479 -1.74987,0.11256 -0.60733,-0.73956 -1.79882,-0.53507 -2.39309,-2.07788 -0.9349,-2.42716 -1.98095,-6.098 -1.37914,-11.6754 -2.37084,2.01051 -5.32607,5.85769 -8.71357,8.38954 -5.03595,3.76391 -10.65776,6.50078 -12.16785,5.25201 z"
       style="display:inline;fill:#000000;fill-opacity:1;stroke-width:0.31999999"
       inkscape:connector-curvature="0"
       sodipodi:nodetypes="cssssscsscsscssssscsc" />
    <path
       id="path4665"
       d="m 351.76,178.95318 c -1.44889,-0.18309 0.30792,-4.56277 6.13397,-5.24735 1.98499,-0.23324 -0.0445,-10.42866 1.28979,-16.24388 1.004,-4.37568 1.48597,-5.05897 1.18136,-5.59845 -0.55546,-0.98374 -3.00187,1.16707 -4.5416,1.07617 -0.0273,-1.22108 -0.97557,-2.28082 0.019,-2.96553 2.01232,-1.38538 4.45761,-4.1777 7.25,-3.70356 3.31994,0.56372 2.83566,0.22352 5.35585,0.0609 3.4867,-0.22512 1.33777,-1.02004 3.8082,-1.2764 0.80711,-0.0838 1.89684,0.68008 0.98648,2.15782 -1.04099,1.68979 -2.28543,-0.32497 -7.73456,5.74723 -1.36431,2.4496 -1.47634,4.58025 -1.94524,6.58598 -0.73307,3.1357 -0.54702,8.1643 -1.16415,10.5826 -1.43575,5.6262 9.82245,-1.09318 0.29827,7.33287 -1.2376,1.09491 -4.52447,1.31214 -10.93732,1.49169 z"
       style="display:inline;fill:#000000;fill-opacity:1;stroke-width:0.31999999"
       inkscape:connector-curvature="0"
       sodipodi:nodetypes="cssscssssscssscc" />
    <path
       id="path4659"
       d="m 421.66102,177.88008 c -2.74607,-1.51648 3.54413,-5.37233 4.4689,-4.90073 3.00346,1.53167 4.50766,0.99634 4.50766,0.99634 0.96179,-1.99898 1.63544,-5.15208 2.56883,-8.37132 0.50179,-1.73063 0.26,-5.73048 1.15307,-9.11512 0.87674,-4.27689 1.00425,-7.38788 3.34293,-8.87675 4.78148,-3.04401 5.18616,-4.145 11.00233,-1.65822 2.73367,1.16881 5.7074,2.95737 -1.18376,6.59351 -1.53802,0.81154 -3.88563,-3.71663 -5.85738,-3.34632 -2.1366,1.48889 -1.63961,2.10175 -2.74922,6.02685 -0.79835,2.82404 -1.82605,10.25009 -2.72839,12.91827 -1.64717,4.87062 -2.51152,6.65619 -2.51152,6.65619 1.44119,-0.39611 3.9664,1.06647 7.51518,0.96167 2.85656,-0.0844 5.32992,0.70162 7.71875,-0.51472 2.50443,-0.8179 4.16798,-2.3176 5.5488,-3.2174 1.91151,-1.24563 3.86997,0.1977 4.00789,1.19601 0.0915,0.66231 -0.7522,1.3431 -1.57927,2.073 -3.23172,2.852 -3.39115,2.61636 -9.82128,3.73013 -5.42266,0.93926 -11.47146,0.86166 -17.37109,0.62089 -1.30888,-0.38097 -2.61673,1.39598 -2.62233,0.44735 -0.0153,-2.58882 -2.75894,-0.75895 -5.4101,-2.21963 z"
       style="display:inline;fill:#000000;fill-opacity:1;stroke-width:0.31999999"
       inkscape:connector-curvature="0"
       sodipodi:nodetypes="cssscssscsssscsssscsc" />
    <path
       id="path4655"
       d="m 318.41192,180.10805 c -0.37675,-0.74001 -1.10393,-3.08919 0.46647,-9.1455 0.6556,-2.52833 2.05085,-12.72751 1.69538,-14.75386 -0.2742,-1.56311 1.55363,-2.39755 0.93184,-4.18095 1.95702,-2.19929 -11.34237,0.27931 -8.30897,1.33305 3.86389,1.34222 -5.70198,7.46503 -5.41764,2.87978 -2.52639,-4.0528 2.23632,-4.77342 3.5415,-5.84722 4.97794,-3.03408 14.10514,-5.78394 17.11607,-4.82587 1.52469,0.48515 -0.71878,3.27136 -1.32708,6.62203 -1.58391,3.16213 -2.07662,6.71352 -1.26176,6.30312 3.36998,-1.69726 15.89265,-11.26134 18.70119,-13.09056 0.61161,-0.39835 2.64003,0.70069 2.16458,2.02521 -0.31848,0.88725 -2.27582,1.53211 -4.61896,3.1733 -2.37928,0.90216 -4.26402,2.67933 -5.91892,3.59371 -9.66977,5.34279 -5.23549,12.0877 -0.48462,15.41729 1.92498,1.3491 9.78114,2.01226 10.34799,0.83351 1.62061,-3.37001 4.28314,-4.09964 4.99747,-4.25598 1.04194,2.13242 -1.61316,5.49043 -2.82428,6.90067 -2.3835,2.77538 -10.6622,2.22923 -16.50679,0.33117 -4.63968,-1.50677 -6.05172,-10.2916 -7.99877,-9.34094 -1.94198,3.5283 -1.7472,9.26822 -1.7472,9.26822 1.08232,3.20064 0.18937,6.12443 -3.5475,6.75982 z"
       style="display:inline;fill:#000000;fill-opacity:1;stroke-width:0.31999999"
       inkscape:connector-curvature="0"
       sodipodi:nodetypes="csscsccscscscssscsscsc" />
    <path
       id="path4651"
       d="m 564.30139,198.69548 c 0.68963,-0.64015 4.58263,-1.2791 5.46651,-1.89629 1.70072,-1.18758 4.4395,-1.8113 5.69301,-2.93819 3.72408,-3.34791 7.50309,-6.97057 9.07355,-11.1354 0.73341,-1.945 -0.49504,-3.24294 0.20854,-5.21515 0.41545,-1.16455 0.0839,-2.74228 -0.35511,-3.58639 -0.6773,-1.30221 0.0479,-1.41401 -0.62376,-1.18822 -1.22187,0.41073 -7.09892,5.18199 -10.05435,5.87331 -13.58035,2.72104 -5.55153,-22.63771 1.59821,-27.83587 7.67965,-7.22701 12.67772,-4.21168 13.01228,-2.51495 0.55509,2.81507 -0.85677,4.16185 1.23062,4.17682 0.88619,0.006 0.46159,2.19945 0.43737,3.24859 -0.0267,1.15608 -1.4304,0.53462 -1.47881,1.68567 -0.0972,2.31018 -2.26662,2.82977 -4.16393,3.73159 -1.93071,0.9177 -2.78674,-0.73167 -1.67527,-5.89624 1.89505,-18.09777 -22.84967,18.47793 -10.06413,21.43526 3.44948,-0.95737 10.03809,-5.83071 11.4695,-8.02313 1.7649,-2.70321 4.34441,-3.76171 7.39344,-3.53507 0.73273,0.0545 0.15385,5.46862 -1.39784,11.6063 -0.80842,3.15278 -0.5794,6.78134 -2.93532,9.22419 -4.40557,4.56812 -12.28963,12.78339 -20.29772,14.1135 -0.49339,0.082 -1.19632,1.08201 -1.74474,0.61059 -1.68327,-0.081 -1.39482,-1.32835 -0.79205,-1.94092 z"
       style="display:inline;fill:#000000;fill-opacity:1;stroke-width:0.31999999"
       inkscape:connector-curvature="0"
       sodipodi:nodetypes="cssssssccsssssccsscsscc" />
    <g
       id="g4924"
       style="display:inline">
      <path
         id="path4679-5"
         d="m 360.59036,125.14071 c 11.53503,-16.01189 1.13898,-7.86571 -9.73837,-10.27685 -4.55852,-20.960363 23.76118,4.11321 24.51539,-27.149964 1.71218,-11.16805 3.64889,-18.75197 4.64454,-29.05829 5.82744,-22.36715 -36.83,3.017897 -17.52738,-14.791273 4.61138,-6.389226 18.42656,0.237926 25.51576,-5.508006 2.42917,-1.968887 6.68781,0.719654 9.63478,2.161274 1.58112,0.773461 3.1408,1.370562 4.56301,1.059868 26.95757,3.619054 16.39874,-6.656868 26.43532,-2.882863 3.2118,1.207716 -2.793,5.795283 -6.89691,10.255989 -12.02508,9.260622 -31.39983,-10.091541 -30.70696,10.588765 -6.57645,17.060869 36.50811,-4.852855 23.53381,10.62335 -11.01642,10.689712 -28.51147,-9.915087 -31.16016,23.310286 -8.60394,24.301624 35.9262,14.386764 34.79993,3.680016 31.82724,-4.660186 8.51195,15.259638 -13.11209,18.781718 -22.5521,3.67324 -27.426,-5.84114 -34.49123,8.5251 -6.16926,6.22413 -12.34567,2.28957 -10.00944,0.68088 z"
         style="display:inline;fill:#000000;fill-opacity:1;stroke-width:0.31999999"
         inkscape:connector-curvature="0"
         sodipodi:nodetypes="cccccsccscccccscc" />
    </g>
    <path
       sodipodi:nodetypes="cccccsccscccccscc"
       inkscape:connector-curvature="0"
       style="display:inline;fill:#000000;fill-opacity:1;stroke-width:0.31999999"
       d="m 193.85103,125.14083 c 11.53503,-16.01189 1.13898,-7.86571 -9.73837,-10.27685 -4.55852,-20.960363 23.76118,4.11321 24.51539,-27.149963 1.71218,-11.16805 3.64889,-18.75197 4.64454,-29.058292 5.82744,-22.36715 -36.83,3.017902 -17.52738,-14.791273 4.61138,-6.389226 18.42656,0.237926 25.51576,-5.508006 2.42917,-1.968887 6.68781,0.719654 9.63478,2.161274 1.58112,0.773461 3.1408,1.370562 4.56301,1.059868 26.95757,3.619054 16.39874,-6.656868 26.43532,-2.882863 3.2118,1.207716 -2.793,5.795283 -6.89691,10.255989 -12.02508,9.260622 -31.39983,-10.091541 -30.70696,10.588765 -6.57645,17.060868 36.50811,-4.852855 23.53381,10.623348 -11.01642,10.68971 -28.51147,-9.915085 -31.16016,23.31029 -8.60394,24.301623 35.9262,14.386763 34.79993,3.68001 31.82724,-4.66018 8.51195,15.259643 -13.11209,18.781723 -22.5521,3.67324 -27.426,-5.84114 -34.49123,8.5251 -6.16926,6.22413 -12.34567,2.28957 -10.00944,0.68088 z"
       id="path4679-5-2" />
    <path
       sodipodi:nodetypes="cccccsccscccccscc"
       inkscape:connector-curvature="0"
       style="display:inline;fill:#000000;fill-opacity:1;stroke-width:0.13790311"
       d="m 598.8342,182.99006 c 4.84618,-7.07777 0.47836,-3.47689 -4.09179,-4.54268 -1.91508,-9.26518 9.98313,1.81818 10.30017,-12.00117 0.71934,-4.93664 1.53299,-8.28898 1.95118,-12.84475 2.44847,-9.88703 -15.47376,1.33404 -7.36374,-6.53824 1.9372,-2.82421 7.74161,0.10518 10.72006,-2.43471 1.02067,-0.87032 2.80977,0.31808 4.04786,0.95536 0.66445,0.34191 1.31975,0.60583 1.91715,0.46851 11.32601,1.59973 6.88965,-2.94258 11.10646,-1.27433 1.34943,0.53386 -1.17343,2.56169 -2.89756,4.53347 -5.05226,4.09353 -13.19231,-4.46081 -12.90116,4.68059 -2.76323,7.54149 15.33846,-2.14511 9.88741,4.69589 -4.62835,4.72519 -11.97881,-4.3828 -13.09149,10.30389 -3.61511,10.74218 15.09383,6.35942 14.62064,1.62668 13.37191,-2.0599 3.57617,6.74529 -5.50878,8.3022 -9.47509,1.62367 -11.52278,-2.58201 -14.49125,3.76836 -2.59183,2.75127 -5.18671,1.01207 -4.20516,0.30093 z"
       id="path4679-1" />
    <path
       sodipodi:nodetypes="ccscsccccscscscsccccc"
       inkscape:connector-curvature="0"
       style="display:inline;fill:#000000;fill-opacity:1;stroke-width:0.14017959"
       d="m 549.30259,179.13682 c -1.7828,-10.66891 -5.42763,-10.18948 -8.64424,-16.68892 -3.13592,-5.71491 -4.59114,-5.35557 -4.91426,0.98106 -0.12699,2.49047 -1.31277,6.50564 -1.44789,8.23114 0.34479,3.60809 -2.39881,7.38471 -3.69634,7.53886 -2.71892,0.32292 -4.40303,0.63069 -1.1063,-4.60823 2.2637,-6.28959 4.31142,-14.00276 3.94146,-19.87625 0.80918,-8.50265 -11.07733,8.80549 -10.02253,1.14795 0.79343,-4.68449 9.4285,-6.06422 13.72221,-8.33825 3.76691,-1.84458 4.35864,-1.26028 4.32556,4.52648 -0.0215,3.7603 2.2897,4.13477 4.01357,8.42782 3.64344,6.53379 3.98631,7.85155 6.28459,-0.68558 1.10924,-4.12037 3.9847,-8.85806 5.07385,-9.77629 1.83458,-3.72214 4.17629,-6.95739 5.88967,-7.92841 1.27338,-0.72164 4.42661,1.10075 5.49068,3.35793 -7.51436,5.00329 -6.04934,0.62741 -7.7096,2.8712 -2.90918,3.93171 -4.40066,9.23304 -6.76193,16.38339 -0.22121,5.10373 4.58809,10.50438 -1.42282,13.57082 l -2.36061,1.63151 -0.65508,-0.76606 z"
       id="path4683-1" />
    <path
       sodipodi:nodetypes="ccscsccccscscscsccccc"
       inkscape:connector-curvature="0"
       style="display:inline;fill:#000000;fill-opacity:1;stroke-width:0.13921706"
       d="m 396.94571,179.15298 c -1.75384,-10.69671 -5.33945,-10.21601 -8.50379,-16.73239 -3.08498,-5.72978 -4.51657,-5.36947 -4.83443,0.98362 -0.12493,2.49693 -1.29145,6.52259 -1.42437,8.25259 0.33919,3.61744 -2.35984,7.40391 -3.63629,7.55842 -2.67475,0.32377 -4.3315,0.63233 -1.08833,-4.62018 2.22692,-6.30598 4.24138,-14.03922 3.87743,-19.92798 0.79604,-8.52476 -10.89736,8.8284 -9.85971,1.15094 0.78055,-4.6967 9.27533,-6.08 13.49927,-8.35995 3.70573,-1.84939 4.28784,-1.26358 4.2553,4.53825 -0.0212,3.77008 2.25251,4.14554 3.94837,8.44975 3.58424,6.5508 3.92154,7.872 6.18248,-0.68735 1.09123,-4.1311 3.91996,-8.88114 4.99143,-9.80173 1.80477,-3.73184 4.10843,-6.97551 5.79399,-7.94905 1.25268,-0.72352 4.35468,1.10363 5.40147,3.36665 -7.39229,5.01633 -5.95107,0.62906 -7.58434,2.87869 -2.86192,3.94193 -4.32918,9.25705 -6.65209,16.426 -0.21761,5.11702 4.51356,10.53173 -1.39971,13.60619 l -2.32224,1.63573 -0.64444,-0.76803 z"
       id="path4683-15" />
    <path
       sodipodi:nodetypes="cccccsccsccccc"
       inkscape:connector-curvature="0"
       style="display:inline;fill:#000000;fill-opacity:1;stroke-width:0.14095263"
       d="m 274.62503,178.83172 c -8.55206,-0.88121 3.53183,-9.87986 2.76945,-4.17434 1.05045,4.53837 14.97981,0.25838 19.00204,-3.11819 2.77354,-5.01179 -1.43085,-8.38015 -6.14566,-9.38275 -4.71362,-1.58924 -9.69441,0.0586 -14.70058,-0.29856 -1.59653,-0.97033 -2.67538,-1.91543 -2.15021,-2.83478 1.17241,-2.05243 11.03187,-7.03321 14.01291,-9.57888 8.47472,-6.99736 15.31127,-10.57889 13.84061,1.54865 -5.23246,5.98309 -8.40776,2.20503 -6.81446,0.38524 2.30999,-2.63844 -1.84927,-2.31988 -4.52727,-0.34031 -4.43713,1.99825 -17.48229,9.07501 -5.15843,7.9669 7.28112,-0.0339 12.26284,0.58695 16.85192,5.10138 4.29464,5.68565 -5.5482,12.13217 -11.30148,12.76949 -5.01269,1.70928 -10.40334,2.41788 -15.67884,1.95615 z"
       id="path4685-2" />
  </g>
</svg>
